<svg width="21" height="21" viewBox="0 0 21 21" fill="none" xmlns="http://www.w3.org/2000/svg">
<path d="M21 10.5C21 16.299 16.299 21 10.5 21C4.70101 21 0 16.299 0 10.5C0 4.70101 4.70101 0 10.5 0C16.299 0 21 4.70101 21 10.5Z" fill="white"/>
<path d="M11.1296 16.2802V11.2488H12.6079L12.8291 9.28759H11.1296V8.03615C11.1296 7.46803 11.2673 7.08123 11.9804 7.08123H12.8887V5.32705C12.7319 5.30292 12.1921 5.25 11.5646 5.25C10.2541 5.25 9.3574 6.16367 9.3574 7.84159V9.28759H7.875V11.2488H9.3574V16.2802H11.1296Z" fill="#191919"/>
</svg>
