<svg width="21" height="21" viewBox="0 0 21 21" fill="none" xmlns="http://www.w3.org/2000/svg">
<circle cx="10.5" cy="10.5" r="10.5" fill="white"/>
<path d="M10.5007 10.4889C12.2211 10.4889 13.6195 9.11803 13.6195 7.43254C13.6195 5.74636 12.2211 4.375 10.5007 4.375C8.78072 4.375 7.38184 5.74636 7.38184 7.43262C7.38184 9.11803 8.78072 10.4889 10.5007 10.4889ZM10.5007 6.16669C11.2129 6.16669 11.792 6.73451 11.792 7.43262C11.792 8.13013 11.2129 8.69805 10.5007 8.69805C9.7893 8.69805 9.20934 8.13013 9.20934 7.43262C9.20934 6.73451 9.78921 6.16669 10.5007 6.16669Z" fill="#191919"/>
<path d="M11.7614 12.9836C12.3963 12.8417 13.0085 12.5957 13.5725 12.2484C13.9993 11.9847 14.1279 11.4315 13.8589 11.0132C13.5902 10.594 13.0265 10.4678 12.5989 10.7315C11.3214 11.5191 9.67653 11.5187 8.39979 10.7315C7.97223 10.4679 7.40844 10.594 7.14018 11.0132C6.87123 11.432 6.9995 11.9846 7.42627 12.2484C7.99006 12.5952 8.60238 12.8417 9.23734 12.9836L7.49369 14.6928C7.13721 15.0426 7.13721 15.6097 7.49404 15.9594C7.67267 16.1341 7.9063 16.2217 8.13984 16.2217C8.37382 16.2217 8.60788 16.1342 8.78643 15.9594L10.4991 14.2799L12.2132 15.9594C12.5697 16.3092 13.1482 16.3092 13.505 15.9594C13.8622 15.6097 13.8622 15.0423 13.505 14.6928L11.7614 12.9836Z" fill="#191919"/>
</svg>
