<svg width="21" height="21" viewBox="0 0 21 21" fill="none" xmlns="http://www.w3.org/2000/svg">
<circle cx="10.5" cy="10.5" r="10.5" fill="white"/>
<path d="M9.94031 13.9703H10.62C10.62 13.9703 10.8257 13.9463 10.9309 13.8244C11.0268 13.7124 11.0237 13.5017 11.0237 13.5017C11.0237 13.5017 11.0105 12.5181 11.4343 12.3729C11.8511 12.2303 12.3878 13.3242 12.9554 13.7447C13.3853 14.0632 13.7116 13.9935 13.7116 13.9935L15.2304 13.9703C15.2304 13.9703 16.0253 13.9172 15.6487 13.2438C15.6178 13.1882 15.4291 12.7453 14.5189 11.8338C13.5663 10.88 13.6938 11.0343 14.8414 9.38464C15.5405 8.38025 15.8196 7.76733 15.7322 7.50442C15.6495 7.25394 15.1353 7.32029 15.1353 7.32029L13.4248 7.33191C13.4248 7.33191 13.2979 7.31283 13.2036 7.3742C13.1123 7.43309 13.0528 7.5716 13.0528 7.5716C13.0528 7.5716 12.7821 8.34873 12.421 9.01059C11.6593 10.4048 11.3547 10.4786 11.2309 10.3923C10.9409 10.19 11.0136 9.5812 11.0136 9.14826C11.0136 7.79636 11.2031 7.23321 10.6432 7.08724C10.4569 7.0383 10.32 7.00679 9.84442 7.00181C9.2343 6.99434 8.71774 7.00347 8.42544 7.15773C8.23057 7.26058 8.08056 7.48949 8.17258 7.50276C8.28548 7.51935 8.54143 7.5774 8.67676 7.77646C8.85229 8.03357 8.84611 8.61165 8.84611 8.61165C8.84611 8.61165 8.94664 10.2032 8.61103 10.4006C8.38059 10.5358 8.06432 10.2596 7.38537 8.994C7.03739 8.34542 6.77447 7.62883 6.77447 7.62883C6.77447 7.62883 6.72421 7.49529 6.63373 7.42314C6.52393 7.33605 6.37082 7.30868 6.37082 7.30868L4.74536 7.32029C4.74536 7.32029 4.50178 7.32776 4.41208 7.44221C4.33243 7.54423 4.40589 7.75406 4.40589 7.75406C4.40589 7.75406 5.67795 10.9655 7.11858 12.5836C8.44013 14.0674 9.94031 13.9703 9.94031 13.9703Z" fill="#191919"/>
</svg>
