<svg width="114" height="140" viewBox="0 0 114 140" fill="none" xmlns="http://www.w3.org/2000/svg">
<path d="M95 59.0356C95 91.9329 56.986 97.2947 56.986 115C57.014 97.2947 19 91.9049 19 59.0356C19 38.0351 36.0253 21 57.014 21C78.0026 21 95 38.0351 95 59.0356Z" fill="white"/>
<path d="M39.876 38.28H41.712L43.092 45.012L44.52 38.28H46.308L46.488 48H45.168L45.024 41.244L43.644 48H42.576L41.172 41.22L41.04 48H39.708L39.876 38.28ZM49.3754 38.28H51.2714L53.2154 48H51.5714L51.1874 45.756H49.4954L49.0994 48H47.4314L49.3754 38.28ZM50.9954 44.628L50.3354 40.548L49.6754 44.628H50.9954ZM56.8089 48.132C55.8009 48.132 55.0849 47.852 54.6609 47.292C54.2449 46.724 54.0369 45.924 54.0369 44.892V41.424C54.0369 40.36 54.2449 39.552 54.6609 39C55.0769 38.448 55.7929 38.172 56.8089 38.172C57.7609 38.172 58.4369 38.412 58.8369 38.892C59.2369 39.372 59.4369 40.064 59.4369 40.968V41.784H57.7329V40.944C57.7329 40.6 57.7169 40.332 57.6849 40.14C57.6529 39.94 57.5689 39.78 57.4329 39.66C57.3049 39.532 57.1009 39.468 56.8209 39.468C56.5329 39.468 56.3169 39.536 56.1729 39.672C56.0289 39.8 55.9329 39.976 55.8849 40.2C55.8449 40.416 55.8249 40.7 55.8249 41.052V45.264C55.8249 45.816 55.8969 46.216 56.0409 46.464C56.1849 46.704 56.4449 46.824 56.8209 46.824C57.0929 46.824 57.2929 46.76 57.4209 46.632C57.5569 46.504 57.6409 46.336 57.6729 46.128C57.7129 45.912 57.7329 45.628 57.7329 45.276V44.4H59.4369V45.18C59.4369 46.116 59.2409 46.844 58.8489 47.364C58.4569 47.876 57.7769 48.132 56.8089 48.132ZM60.6974 38.28H62.4614V42.36H62.8214L64.3934 38.28H66.1574L64.3094 42.876L66.3014 48H64.5134L62.8214 43.524H62.4614V48H60.6974V38.28ZM67.1896 38.28H68.6416V44.412L71.3056 38.28H72.4936V48H71.0176V41.76L68.3536 48H67.1896V38.28Z" fill="#EC5827"/>
<path d="M44.68 55.96H39.52V51.6H55.64V55.96H50.6V84H44.68V55.96ZM61.8284 55.96H56.6684V51.6H72.7884V55.96H67.7484V84H61.8284V55.96Z" fill="#EC5827"/>
</svg>
