<svg width="30" height="27" viewBox="0 0 30 27" fill="none" xmlns="http://www.w3.org/2000/svg">
<path fill-rule="evenodd" clip-rule="evenodd" d="M1.4008 0C0.876873 0 0.452148 0.431422 0.452148 0.963608C0.452148 1.49579 0.876873 1.92722 1.4008 1.92722H5.57073C6.01536 1.92722 6.40033 2.2409 6.49679 2.68179L9.63106 17.0084C9.92043 18.3311 11.0753 19.2722 12.4092 19.2722H24.7367C25.9335 19.2722 27.0024 18.5117 27.4113 17.3693L29.8261 10.624C30.501 8.73865 29.1265 6.74526 27.1515 6.74526H9.32934L8.3489 2.26372C8.05954 0.941056 6.90462 0 5.57073 0H1.4008ZM11.4832 16.5904L9.75096 8.67247H27.1515C27.8098 8.67247 28.268 9.33694 28.043 9.96539L25.6283 16.7106C25.4919 17.0915 25.1356 17.3449 24.7367 17.3449H12.4092C11.9646 17.3449 11.5796 17.0313 11.4832 16.5904Z" fill="#EC5827"/>
<path d="M12.7846 26.0174C13.8324 26.0174 14.6819 25.1546 14.6819 24.0902C14.6819 23.0258 13.8324 22.163 12.7846 22.163C11.7367 22.163 10.8873 23.0258 10.8873 24.0902C10.8873 25.1546 11.7367 26.0174 12.7846 26.0174Z" fill="#EC5827"/>
<path d="M26.0657 24.0902C26.0657 25.1546 25.2162 26.0174 24.1684 26.0174C23.1205 26.0174 22.2711 25.1546 22.2711 24.0902C22.2711 23.0258 23.1205 22.163 24.1684 22.163C25.2162 22.163 26.0657 23.0258 26.0657 24.0902Z" fill="#EC5827"/>
</svg>
