<svg width="21" height="21" viewBox="0 0 21 21" fill="none" xmlns="http://www.w3.org/2000/svg">
<circle cx="10.5" cy="10.5" r="10.5" fill="#191919"/>
<path d="M10.4991 12.2702C11.4643 12.2702 12.2468 11.4878 12.2468 10.5226C12.2468 9.55735 11.4643 8.7749 10.4991 8.7749C9.53391 8.7749 8.75146 9.55735 8.75146 10.5226C8.75146 11.4878 9.53391 12.2702 10.4991 12.2702Z" fill="white"/>
<path d="M15.7148 8.35904C15.6866 7.80233 15.602 7.42179 15.4681 7.08353C15.3342 6.73823 15.1581 6.44226 14.8621 6.15333C14.5732 5.86441 14.2772 5.68119 13.9319 5.54729C13.6007 5.42045 13.2131 5.32884 12.6564 5.30065C12.0997 5.27951 11.9235 5.27246 10.5 5.27246C9.06946 5.27246 8.89329 5.27951 8.33658 5.30065C7.77987 5.32884 7.39933 5.4134 7.06107 5.54729C6.71577 5.68119 6.4198 5.85736 6.13087 6.15333C5.84195 6.44226 5.65872 6.73823 5.52483 7.08353C5.39799 7.41474 5.30638 7.80233 5.27819 8.35904C5.25705 8.91575 5.25 9.09192 5.25 10.5225C5.25 11.946 5.25705 12.1292 5.27819 12.6859C5.30638 13.2426 5.39094 13.6231 5.52483 13.9614C5.65872 14.3067 5.8349 14.6027 6.13087 14.8916C6.4198 15.1805 6.71577 15.3637 7.06107 15.4976C7.39228 15.6245 7.77987 15.7161 8.33658 15.7443C8.89329 15.7725 9.07651 15.7725 10.5 15.7725C11.9235 15.7725 12.1067 15.7654 12.6634 15.7443C13.2201 15.7161 13.6007 15.6315 13.9389 15.4976C14.2842 15.3637 14.5802 15.1876 14.8691 14.8916C15.1581 14.6027 15.3413 14.3067 15.4752 13.9614C15.602 13.6302 15.6936 13.2426 15.7218 12.6859C15.75 12.1292 15.75 11.946 15.75 10.5225C15.743 9.09192 15.743 8.91575 15.7148 8.35904ZM10.5 13.2144C9.01309 13.2144 7.80805 12.0094 7.80805 10.5225C7.80805 9.03555 9.01309 7.83051 10.5 7.83051C11.9869 7.83051 13.1919 9.03555 13.1919 10.5225C13.1919 12.0094 11.9869 13.2144 10.5 13.2144ZM13.2977 8.35199C12.9523 8.35199 12.6705 8.07011 12.6705 7.72481C12.6705 7.37951 12.9523 7.09763 13.2977 7.09763C13.643 7.09763 13.9248 7.37951 13.9248 7.72481C13.9319 8.07011 13.65 8.35199 13.2977 8.35199Z" fill="white"/>
</svg>
