<svg width="39" height="34" viewBox="0 0 39 34" fill="none" xmlns="http://www.w3.org/2000/svg">
<path fill-rule="evenodd" clip-rule="evenodd" d="M1.23971 0C0.555037 0 0 0.56379 0 1.25926C0 1.95473 0.555037 2.51852 1.23971 2.51852H6.68905C7.2701 2.51852 7.77319 2.92845 7.89924 3.50461L11.9952 22.2269C12.3733 23.9554 13.8826 25.1852 15.6257 25.1852H31.7355C33.2994 25.1852 34.6963 24.1914 35.2307 22.6984L38.3863 13.8836C39.2684 11.4198 37.4721 8.81481 34.8911 8.81481H11.6009L10.3196 2.95826C9.94147 1.22979 8.4322 0 6.68905 0H1.23971ZM14.4155 21.6806L12.1518 11.3333H34.8911C35.7514 11.3333 36.3502 12.2017 36.0562 13.0229L32.9006 21.8377C32.7224 22.3354 32.2568 22.6667 31.7355 22.6667H15.6257C15.0447 22.6667 14.5416 22.2567 14.4155 21.6806Z" fill="#191919"/>
<path d="M16.1162 34C17.4856 34 18.5956 32.8724 18.5956 31.4815C18.5956 30.0905 17.4856 28.963 16.1162 28.963C14.7469 28.963 13.6368 30.0905 13.6368 31.4815C13.6368 32.8724 14.7469 34 16.1162 34Z" fill="#191919"/>
<path d="M33.4722 31.4815C33.4722 32.8724 32.3621 34 30.9927 34C29.6234 34 28.5133 32.8724 28.5133 31.4815C28.5133 30.0905 29.6234 28.963 30.9927 28.963C32.3621 28.963 33.4722 30.0905 33.4722 31.4815Z" fill="#191919"/>
</svg>
