<svg width="19" height="27" viewBox="0 0 19 27" fill="none" xmlns="http://www.w3.org/2000/svg">
<path d="M9.28732 13.2404C8.22579 13.2404 7.16426 12.8432 6.43446 12.0488C5.70466 11.2543 5.24023 10.3274 5.24023 9.26817C5.24023 7.08342 7.03157 5.2959 9.22098 5.2959H9.35367C11.5431 5.3621 13.2681 7.08342 13.2681 9.26817C13.2681 10.3274 12.87 11.3205 12.0738 12.0488C11.344 12.8432 10.3489 13.2404 9.28732 13.2404ZM9.28732 6.61999C7.82772 6.61999 6.63349 7.81167 6.63349 9.26817C6.63349 9.99642 6.89888 10.6585 7.42964 11.1219C7.96041 11.6515 8.62387 11.9163 9.28732 11.9163C10.0171 11.9163 10.6806 11.6515 11.2113 11.1219C11.7421 10.5923 12.0075 9.93021 12.0075 9.26817C11.9411 7.81167 10.7469 6.61999 9.28732 6.61999Z" fill="black"/>
<path d="M9.28839 26.3494L8.75763 25.5549C8.49225 25.2239 2.78652 16.8822 1.5923 14.9622C0.265383 12.8437 0 11.2548 0 9.26863C0 4.17089 4.17978 0 9.28839 0C14.397 0 18.5768 4.17089 18.5768 9.26863C18.5768 11.2548 18.3114 12.8437 16.9845 14.9622C15.7903 16.816 10.0845 25.1577 9.81916 25.5549L9.28839 26.3494ZM9.28839 1.32409C4.90958 1.32409 1.32691 4.89913 1.32691 9.26863C1.32691 11.3872 1.65864 12.6451 2.72017 14.3002C3.64901 15.8229 7.82879 21.8475 9.28839 24.0322C10.8143 21.8475 14.9278 15.8229 15.8566 14.3002C16.9181 12.6451 17.2499 11.3872 17.2499 9.26863C17.2499 4.89913 13.6672 1.32409 9.28839 1.32409Z" fill="black"/>
</svg>
