<svg width="21" height="21" viewBox="0 0 21 21" fill="none" xmlns="http://www.w3.org/2000/svg">
<circle cx="10.5" cy="10.5" r="10.5" fill="#191919"/>
<path d="M10.5007 10.4891C12.2211 10.4891 13.6195 9.11827 13.6195 7.43278C13.6195 5.74661 12.2211 4.37524 10.5007 4.37524C8.78072 4.37524 7.38184 5.74661 7.38184 7.43287C7.38184 9.11827 8.78072 10.4891 10.5007 10.4891ZM10.5007 6.16693C11.2129 6.16693 11.792 6.73476 11.792 7.43287C11.792 8.13038 11.2129 8.69829 10.5007 8.69829C9.7893 8.69829 9.20934 8.13038 9.20934 7.43287C9.20934 6.73476 9.78921 6.16693 10.5007 6.16693Z" fill="white"/>
<path d="M11.7614 12.9841C12.3963 12.8422 13.0085 12.5961 13.5725 12.2488C13.9993 11.9852 14.1279 11.432 13.8589 11.0137C13.5902 10.5945 13.0265 10.4683 12.5989 10.732C11.3214 11.5196 9.67653 11.5192 8.39979 10.732C7.97223 10.4684 7.40844 10.5945 7.14018 11.0137C6.87123 11.4325 6.9995 11.9851 7.42627 12.2488C7.99006 12.5957 8.60238 12.8422 9.23734 12.9841L7.49369 14.6933C7.13721 15.0431 7.13721 15.6101 7.49404 15.9599C7.67267 16.1346 7.9063 16.2222 8.13984 16.2222C8.37382 16.2222 8.60788 16.1347 8.78643 15.9599L10.4991 14.2804L12.2132 15.9599C12.5697 16.3097 13.1482 16.3097 13.505 15.9599C13.8622 15.6101 13.8622 15.0427 13.505 14.6933L11.7614 12.9841Z" fill="white"/>
</svg>
