<svg width="25" height="25" viewBox="0 0 25 25" fill="none" xmlns="http://www.w3.org/2000/svg">
<path d="M21.7574 24.4813H21.3746C20.2261 24.4175 14.1008 23.7795 7.40135 17.08C0.701852 10.3805 0.0638047 4.25522 0 3.10673V2.7239L0.319024 2.53249C2.42458 1.12879 4.0835 0.554543 5.48721 0.171715L5.80623 0.10791L6.06145 0.363129C7.59276 1.89444 8.99646 4.0638 9.82592 5.97794L10.0173 6.36077L7.72037 8.65774C7.97559 9.4234 8.80505 11.2099 11.0382 13.4431C13.2714 15.6763 15.0579 16.5057 15.8236 16.7609L18.1205 14.464L18.5034 14.6554C20.4175 15.4848 22.5869 16.8885 24.1182 18.4199L24.3734 18.6751L24.3096 19.0579C23.9268 20.4616 23.3525 22.1205 21.9488 24.2261L21.7574 24.4813ZM1.3399 3.42576C1.53131 4.95707 2.48838 10.3805 8.35842 16.1867C14.2285 21.9929 19.588 23.0138 21.1194 23.2052C22.1402 21.6101 22.6507 20.2702 22.9697 19.1217C21.6936 17.9094 19.9709 16.7609 18.4396 16.0591L16.2064 18.2923L15.8236 18.2284C15.3769 18.1008 13.0162 17.399 10.1449 14.464C7.20993 11.529 6.50808 9.23198 6.38047 8.78535L6.31667 8.40252L8.54983 6.16936C7.78417 4.57424 6.63569 2.85151 5.4234 1.51161C4.27492 1.83064 2.93502 2.34107 1.3399 3.42576Z" fill="black"/>
</svg>
