<svg width="21" height="21" viewBox="0 0 21 21" fill="none" xmlns="http://www.w3.org/2000/svg">
<circle cx="10.5" cy="10.5" r="10.5" fill="#191919"/>
<path d="M9.39858 12.2112V8.73023L12.1747 10.4702L9.39858 12.2112ZM15.5685 7.53215C15.4404 6.86427 14.9829 6.37215 14.4334 6.29892C13.1316 6.12512 11.8133 6.12414 10.5016 6.12512C9.18914 6.12414 7.87171 6.12512 6.56907 6.29892C6.01959 6.37215 5.56293 6.86427 5.4348 7.53215C5.25164 8.48319 5.25 9.52113 5.25 10.4995C5.25 11.4789 5.25 12.5168 5.43234 13.4679C5.56047 14.1347 6.01713 14.6278 6.56743 14.7011C7.86925 14.8749 9.1875 14.8759 10.4992 14.8749C11.8117 14.8759 13.1291 14.8749 14.4309 14.7011C14.9812 14.6278 15.4379 14.1347 15.566 13.4679C15.7492 12.5168 15.75 11.4789 15.75 10.4995C15.75 9.52113 15.7516 8.48319 15.5685 7.53215Z" fill="white"/>
</svg>
