<svg width="108" height="18" viewBox="0 0 108 18" fill="none" xmlns="http://www.w3.org/2000/svg">
<path d="M53.7033 1.00589C53.8806 0.614221 54.4369 0.614221 54.6143 1.00589L56.5908 5.37088C56.665 5.53482 56.8216 5.64621 57.0008 5.66257L61.9074 6.11031C62.3492 6.15062 62.5236 6.70359 62.1848 6.99004L58.5216 10.0875C58.3783 10.2087 58.3149 10.3999 58.3574 10.5826L59.4249 15.1724C59.5235 15.5964 59.0708 15.9351 58.6918 15.7209L54.4049 13.2971C54.2522 13.2108 54.0654 13.2108 53.9127 13.2971L49.6257 15.7209C49.2468 15.9351 48.794 15.5964 48.8926 15.1724L49.9601 10.5826C50.0027 10.3999 49.9393 10.2087 49.796 10.0875L46.1328 6.99004C45.794 6.70359 45.9684 6.15062 46.4102 6.11031L51.3167 5.66257C51.4959 5.64621 51.6525 5.53482 51.7268 5.37088L53.7033 1.00589Z" fill="#EC5827"/>
<path d="M75.632 1.00589C75.8094 0.614221 76.3656 0.614221 76.543 1.00589L78.5195 5.37088C78.5937 5.53482 78.7503 5.64621 78.9295 5.66257L83.8361 6.11031C84.2779 6.15062 84.4523 6.70359 84.1135 6.99004L80.4503 10.0875C80.307 10.2087 80.2436 10.3999 80.2861 10.5826L81.3536 15.1724C81.4522 15.5964 80.9995 15.9351 80.6205 15.7209L76.3336 13.2971C76.1809 13.2108 75.9941 13.2108 75.8414 13.2971L71.5544 15.7209C71.1755 15.9351 70.7227 15.5964 70.8214 15.1724L71.8889 10.5826C71.9314 10.3999 71.868 10.2087 71.7247 10.0875L68.0615 6.99004C67.7227 6.70359 67.8971 6.15062 68.3389 6.11031L73.2454 5.66257C73.4247 5.64621 73.5813 5.53482 73.6555 5.37088L75.632 1.00589Z" fill="#EC5827"/>
<path d="M97.5607 1.00589C97.7381 0.614221 98.2943 0.614221 98.4717 1.00589L100.448 5.37088C100.522 5.53482 100.679 5.64621 100.858 5.66257L105.765 6.11031C106.207 6.15062 106.381 6.70359 106.042 6.99004L102.379 10.0875C102.236 10.2087 102.172 10.3999 102.215 10.5826L103.282 15.1724C103.381 15.5964 102.928 15.9351 102.549 15.7209L98.2623 13.2971C98.1096 13.2108 97.9228 13.2108 97.7701 13.2971L93.4831 15.7209C93.1042 15.9351 92.6514 15.5964 92.7501 15.1724L93.8176 10.5826C93.8601 10.3999 93.7967 10.2087 93.6534 10.0875L89.9902 6.99004C89.6514 6.70359 89.8258 6.15062 90.2676 6.11031L95.1742 5.66257C95.3534 5.64621 95.51 5.53482 95.5842 5.37088L97.5607 1.00589Z" fill="#C4C4C4"/>
<path d="M31.7746 1.00589C31.9519 0.614221 32.5082 0.614221 32.6855 1.00589L34.6621 5.37088C34.7363 5.53482 34.8929 5.64621 35.0721 5.66257L39.9787 6.11031C40.4205 6.15062 40.5948 6.70359 40.2561 6.99004L36.5929 10.0875C36.4496 10.2087 36.3862 10.3999 36.4287 10.5826L37.4962 15.1724C37.5948 15.5964 37.1421 15.9351 36.7631 15.7209L32.4761 13.2971C32.3235 13.2108 32.1367 13.2108 31.984 13.2971L27.697 15.7209C27.3181 15.9351 26.8653 15.5964 26.9639 15.1724L28.0314 10.5826C28.0739 10.3999 28.0106 10.2087 27.8673 10.0875L24.2041 6.99004C23.8653 6.70359 24.0396 6.15062 24.4815 6.11031L29.388 5.66257C29.5672 5.64621 29.7238 5.53482 29.7981 5.37088L31.7746 1.00589Z" fill="#EC5827"/>
<path d="M7.73372 1.05792C7.9155 0.656476 8.50997 0.656476 8.69175 1.05792L10.6422 5.36533C10.7179 5.53241 10.8824 5.64688 11.0717 5.66416L15.9522 6.10952C16.407 6.15103 16.5907 6.69246 16.2482 6.98207L12.5732 10.0896C12.4306 10.2101 12.3678 10.3953 12.4091 10.5731L13.475 15.1557C13.5743 15.5828 13.0934 15.9175 12.6999 15.695L8.47817 13.3081C8.31442 13.2155 8.11105 13.2155 7.9473 13.3081L3.72554 15.695C3.33208 15.9175 2.85114 15.5828 2.95048 15.1557L4.01634 10.5731C4.05768 10.3953 3.99483 10.2101 3.85229 10.0896L0.177235 6.98207C-0.16527 6.69246 0.0184333 6.15103 0.473283 6.10952L5.35378 5.66416C5.54308 5.64688 5.70761 5.53241 5.78327 5.36533L7.73372 1.05792Z" fill="#EC5827"/>
</svg>
