<!-- Generated by IcoMoon.io -->
<svg version="1.1" xmlns="http://www.w3.org/2000/svg" width="1152" height="1024" viewBox="0 0 1152 1024">
<title></title>
<g id="icomoon-ignore">
</g>
<path d="M547.886 64.377c11.35-25.067 46.95-25.067 58.301 0l126.497 279.359c4.749 10.492 14.771 17.621 26.24 18.668l314.022 28.655c28.275 2.58 39.437 37.97 17.754 56.303l-234.445 198.237c-9.171 7.757-13.229 19.994-10.509 31.686l68.32 293.747c6.317 27.136-22.662 48.813-46.912 35.104l-274.369-155.123c-9.773-5.523-21.726-5.523-31.498 0l-274.367 155.123c-24.253 13.709-53.229-7.968-46.917-35.104l68.321-293.747c2.721-11.693-1.336-23.93-10.506-31.686l-234.446-198.237c-21.681-18.333-10.522-53.723 17.754-56.303l314.020-28.655c11.469-1.047 21.492-8.176 26.243-18.668l126.497-279.359z"></path>
</svg>
