<svg width="18" height="16" viewBox="0 0 18 16" fill="none" xmlns="http://www.w3.org/2000/svg">
<path d="M8.63201 1.00589C8.80936 0.614221 9.36561 0.614221 9.54297 1.00589L11.5195 5.37088C11.5937 5.53482 11.7503 5.64621 11.9295 5.66257L16.8361 6.11031C17.2779 6.15062 17.4523 6.70359 17.1135 6.99004L13.4503 10.0875C13.307 10.2087 13.2436 10.3999 13.2861 10.5826L14.3536 15.1724C14.4522 15.5964 13.9995 15.9351 13.6205 15.7209L9.33357 13.2971C9.18087 13.2108 8.9941 13.2108 8.84141 13.2971L4.55443 15.7209C4.17548 15.9351 3.72273 15.5964 3.82135 15.1724L4.88886 10.5826C4.93136 10.3999 4.86798 10.2087 4.7247 10.0875L1.06147 6.99004C0.722704 6.70359 0.897067 6.15062 1.33887 6.11031L6.24544 5.66257C6.42465 5.64621 6.58125 5.53482 6.65548 5.37088L8.63201 1.00589Z" fill="#EC5827"/>
</svg>
