<svg width="49" height="39" viewBox="0 0 49 39" fill="none" xmlns="http://www.w3.org/2000/svg">
<path d="M47.9 5.5C47.7 5.2 47.4 5 47 5H36V7H45.3L29.3 37H5C3.3 37 2 35.7 2 34V32C2 30.3 3.3 29 5 29H18C18.6 29 19 29.4 19 30V31C19 31.6 18.6 32 18 32H5V34H18C19.1 34 20.1 33.4 20.6 32.5L34.3 6.6C34.8 5.7 35 4.8 35 3.8V3C35 1.3 33.7 0 32 0H21C16.5 0 15.6 1.7 14.3 4.2L0.700012 29.5C0.300012 30.2 0 31.1 0 32V34C0 36.8 2.2 39 5 39H30C30.4 39 30.8 38.7 30.9 38.3L47.9 6.5C48.1 6.2 48.1 5.8 47.9 5.5ZM15.9 5.5L16.1 5.1C17.3 2.9 17.7 2 21 2H32C32.6 2 33 2.4 33 3V3.8C33 4.4 32.8 5.1 32.5 5.7L20.5 28.4C20 27.6 19 27 18 27H5C4.7 27 4.50001 27 4.20001 27.1L15.9 5.5Z" fill="#EC5827"/>
</svg>
