<svg width="48" height="32" viewBox="0 0 48 32" fill="none" xmlns="http://www.w3.org/2000/svg">
<path d="M45 15H44.6L41.4 9.3C40.8 8.5 39.9 8 38.9 8H32V0H0V28H6.1C6.6 30.3 8.6 32 11 32C13.4 32 15.4 30.3 15.9 28H31H32H34.1C34.6 30.3 36.6 32 39 32C41.4 32 43.4 30.3 43.9 28H45C46.7 28 48 26.7 48 25V18.2C48 16.3 46.8 15 45 15ZM11 30C9.3 30 8 28.7 8 27C8 25.3 9.3 24 11 24C12.7 24 14 25.3 14 27C14 28.7 12.7 30 11 30ZM30 26H15.9C15.4 23.7 13.4 22 11 22C8.6 22 6.6 23.7 6.1 26H2V2H30V26ZM39 30C37.3 30 36 28.7 36 27C36 25.3 37.4 24 39 24C40.6 24 42 25.3 42 27C42 28.7 40.7 30 39 30ZM46 25C46 25.6 45.6 26 45 26H43.9C43.4 23.7 41.4 22 39 22C36.6 22 34.6 23.7 34.1 26H32V10H38.9C39.2 10 39.5 10.2 39.7 10.4L42.3 15H41.8L39.8 16H33V18H40.2L42.2 17H43.4H44H45C45.7 17 46 17.4 46 18.2V25Z" fill="#EC5827"/>
</svg>
