<svg width="47" height="45" viewBox="0 0 47 45" fill="none" xmlns="http://www.w3.org/2000/svg">
<path d="M23.2392 25.45C23.3392 25.45 23.4392 25.45 23.5392 25.45C23.7392 25.45 23.8392 25.45 24.0392 25.35L46.2392 13.65C46.5392 13.45 46.7392 13.15 46.7392 12.75C46.7392 12.35 46.5392 12.05 46.2392 11.85L23.9392 0.15C23.6392 -0.05 23.2392 -0.05 22.9392 0.15C22.8392 0.25 9.93924 8.55 1.13924 6.85C0.83924 6.75 0.439215 6.95 0.239215 7.15C0.0392154 7.35 -0.0607663 7.75 0.0392337 8.05C3.03923 19.45 22.3392 25.25 23.2392 25.45ZM23.5392 2.25L43.5392 12.85L23.4392 23.45C20.8392 22.65 6.23923 17.65 2.43923 9.15C10.8392 9.75 21.1392 3.75 23.5392 2.25Z" fill="#EC5827"/>
<path d="M46.1392 21.6502L40.9392 18.9502L40.0392 20.7502L43.5392 22.6502L23.4392 33.2502C20.8392 32.4502 6.23923 27.4502 2.43923 18.9502C3.13923 18.9502 3.83923 19.0502 4.53923 18.9502L4.43923 16.9502C3.23923 17.0502 2.13924 16.9502 1.13924 16.7502C0.83924 16.6502 0.439215 16.8502 0.239215 17.0502C0.0392154 17.3502 -0.0607663 17.6502 0.0392337 17.9502C3.13923 29.1502 22.4392 34.9502 23.2392 35.1502C23.3392 35.1502 23.4392 35.1502 23.5392 35.1502C23.7392 35.1502 23.8392 35.1502 24.0392 35.0502L46.2392 23.3502C46.5392 23.1502 46.7392 22.8502 46.7392 22.4502C46.7392 22.0502 46.4392 21.8502 46.1392 21.6502Z" fill="#EC5827"/>
<path d="M46.1392 31.3499L40.9392 28.6499L40.0392 30.4499L43.5392 32.3499L23.4392 42.9499C20.8392 42.1499 6.23923 37.1499 2.43923 28.6499C3.13923 28.6499 3.83923 28.7499 4.53923 28.6499L4.43923 26.6499C3.23923 26.7499 2.13924 26.6499 1.13924 26.4499C0.83924 26.3499 0.439215 26.5499 0.239215 26.7499C0.0392154 27.0499 -0.0607663 27.3499 0.0392337 27.6499C3.13923 38.8499 22.4392 44.6499 23.2392 44.8499C23.3392 44.8499 23.4392 44.8499 23.5392 44.8499C23.7392 44.8499 23.8392 44.8499 24.0392 44.7499L46.2392 33.0499C46.5392 32.8499 46.7392 32.5499 46.7392 32.1499C46.7392 31.7499 46.4392 31.5499 46.1392 31.3499Z" fill="#EC5827"/>
</svg>
