<svg width="45" height="41" viewBox="0 0 45 41" fill="none" xmlns="http://www.w3.org/2000/svg">
<path d="M43 3H37V5H43V11H2V5H8V3H2C0.9 3 0 3.9 0 5V39C0 40.1 0.9 41 2 41H43C44.1 41 45 40.1 45 39V5C45 3.9 44.1 3 43 3ZM2 39V13H43V39H2Z" fill="#EC5827"/>
<path d="M36 0H34V7H36V0Z" fill="#EC5827"/>
<path d="M33 3H12V5H33V3Z" fill="#EC5827"/>
<path d="M11 0H9V7H11V0Z" fill="#EC5827"/>
<path d="M19 19H16V21H19V19Z" fill="#EC5827"/>
<path d="M24 19H21V21H24V19Z" fill="#EC5827"/>
<path d="M29 19H26V21H29V19Z" fill="#EC5827"/>
<path d="M34 19H31V21H34V19Z" fill="#EC5827"/>
<path d="M14 24H11V26H14V24Z" fill="#EC5827"/>
<path d="M19 24H16V26H19V24Z" fill="#EC5827"/>
<path d="M24 24H21V26H24V24Z" fill="#EC5827"/>
<path d="M29 24H26V26H29V24Z" fill="#EC5827"/>
<path d="M34 24H31V26H34V24Z" fill="#EC5827"/>
<path d="M14 29H11V31H14V29Z" fill="#EC5827"/>
<path d="M19 29H16V31H19V29Z" fill="#EC5827"/>
<path d="M24 29H21V31H24V29Z" fill="#EC5827"/>
<path d="M29 29H26V31H29V29Z" fill="#EC5827"/>
</svg>
