<svg width="49" height="41" viewBox="0 0 49 41" fill="none" xmlns="http://www.w3.org/2000/svg">
<path d="M43 34.9751H41V36.9751H43V34.9751Z" fill="#EC5827"/>
<path d="M7 34.9751H5V36.9751H7V34.9751Z" fill="#EC5827"/>
<path d="M13 34.9751H11V36.9751H13V34.9751Z" fill="#EC5827"/>
<path d="M19 34.9751H17V36.9751H19V34.9751Z" fill="#EC5827"/>
<path d="M25 34.9751H23V36.9751H25V34.9751Z" fill="#EC5827"/>
<path d="M31 34.9751H29V36.9751H31V34.9751Z" fill="#EC5827"/>
<path d="M37 34.9751H35V36.9751H37V34.9751Z" fill="#EC5827"/>
<path d="M43 30.9751H5C2.2 30.9751 0 33.1751 0 35.9751C0 38.7751 2.2 40.9751 5 40.9751H43C45.8 40.9751 48 38.7751 48 35.9751C48 33.1751 45.7 30.9751 43 30.9751ZM43 38.9751H5C3.3 38.9751 2 37.6751 2 35.9751C2 34.2751 3.3 32.9751 5 32.9751H43C44.7 32.9751 46 34.2751 46 35.9751C46 37.6751 44.6 38.9751 43 38.9751Z" fill="#EC5827"/>
<path d="M21.5001 21.5751L19.3001 20.8751C18.8001 20.6751 18.3001 20.9751 18.1001 21.4751L16.1001 26.2751C15.9001 26.7751 16.1001 27.2751 16.6001 27.5751L18.7001 28.6751C18.6001 29.1751 18.6001 29.6751 18.6001 30.1751H20.6001C20.6001 29.5751 20.7001 28.8751 20.8001 28.2751C20.9001 27.8751 20.7001 27.3751 20.3001 27.1751L18.4001 26.1751L19.7001 23.0751L21.7001 23.7751C22.1001 23.8751 22.6001 23.7751 22.8001 23.3751C23.5001 22.3751 24.4001 21.4751 25.4001 20.6751C25.8001 20.3751 25.9001 19.9751 25.8001 19.5751L25.1001 17.5751L28.2001 16.2751L29.2001 18.1751C29.4001 18.5751 29.8001 18.7751 30.3001 18.6751C31.5001 18.4751 32.8001 18.4751 34.0001 18.6751C34.4001 18.7751 34.9001 18.5751 35.1001 18.1751L36.1001 16.2751L39.2001 17.5751L38.5001 19.5751C38.4001 19.9751 38.5001 20.4751 38.9001 20.6751C39.9001 21.3751 40.8001 22.2751 41.6001 23.2751C41.9001 23.6751 42.3001 23.7751 42.7001 23.6751L44.7001 22.9751L46.0001 26.0751L44.1001 27.0751C43.7001 27.2751 43.5001 27.6751 43.6001 28.1751C43.7001 28.7751 43.8001 29.4751 43.8001 30.0751H45.8001C45.8001 29.5751 45.8001 29.0751 45.7001 28.5751L47.8001 27.4751C48.3001 27.2751 48.5001 26.6751 48.3001 26.1751L46.3001 21.3751C46.1001 20.8751 45.6001 20.6751 45.1001 20.7751L42.9001 21.4751C42.3001 20.6751 41.6001 19.9751 40.8001 19.3751L41.5001 17.1751C41.7001 16.6751 41.4001 16.1751 40.9001 15.9751L36.1001 13.9751C35.6001 13.7751 35.1001 13.9751 34.8001 14.4751L33.7001 16.5751C32.7001 16.4751 31.7001 16.4751 30.8001 16.5751L29.7001 14.4751C29.5001 13.9751 28.9001 13.7751 28.4001 13.9751L23.6001 15.9751C23.1001 16.1751 22.9001 16.6751 23.0001 17.1751L23.7001 19.3751C22.8001 20.0751 22.1001 20.7751 21.5001 21.5751Z" fill="#EC5827"/>
<path d="M1.20002 9.675L3.00002 10.375C3.00002 10.775 3.00002 11.175 3.00002 11.575L1.20002 12.275C1.00002 12.375 0.800016 12.575 0.700016 12.775C0.600016 12.975 0.600016 13.275 0.700016 13.575L2.00002 16.775C2.10002 16.975 2.30002 17.175 2.50002 17.275C2.70002 17.375 3.00002 17.375 3.30002 17.275L5.10003 16.575C5.40003 16.875 5.70002 17.175 6.00002 17.475L5.30002 19.275C5.20002 19.475 5.20002 19.775 5.30002 20.075C5.40002 20.375 5.60002 20.475 5.80002 20.575L9.00002 21.875C9.50002 22.075 10.1 21.875 10.3 21.375L11 19.575C11.4 19.575 11.8 19.575 12.2 19.575L12.9 21.375C13.1 21.775 13.4 21.975 13.8 21.975C13.9 21.975 14.1 21.975 14.2 21.875L17.4 20.575C17.6 20.475 17.8 20.275 17.9 20.075C18 19.875 18 19.575 17.9 19.275L17.2 17.475C17.5 17.175 17.8 16.875 18.1 16.575L19.9 17.275C20.4 17.475 21 17.275 21.2 16.775L22.5 13.575C22.6 13.375 22.6 13.075 22.5 12.775C22.4 12.475 22.2 12.375 22 12.275L20.2 11.575C20.2 11.175 20.2 10.775 20.2 10.375L22 9.675C22.5 9.475 22.8 8.875 22.5 8.375L21.2 5.175C21 4.675 20.4 4.375 19.9 4.675L18.1 5.375C17.8 5.075 17.5 4.775 17.2 4.475L17.9 2.675C18.1 2.175 17.9 1.575 17.4 1.375L14.2 0.075C14 -0.025 13.7 -0.025 13.4 0.075C13.1 0.175 13 0.375 12.9 0.575L12.2 2.375C11.8 2.375 11.4 2.375 11 2.375L10.3 0.575C10.2 0.375 10 0.175 9.80002 0.075C9.60002 -0.025 9.30002 -0.025 9.00002 0.075L5.80002 1.375C5.30002 1.575 5.00002 2.175 5.30002 2.675L6.00002 4.475C5.70002 4.775 5.40003 5.075 5.10003 5.375L3.30002 4.675C3.10002 4.575 2.80002 4.575 2.50002 4.675C2.30002 4.775 2.10002 4.975 2.00002 5.175L0.700016 8.375C0.400016 8.875 0.700016 9.475 1.20002 9.675ZM3.40003 6.875L4.90003 7.475C5.30003 7.675 5.80002 7.475 6.10003 7.175C6.50003 6.575 7.00003 6.075 7.60003 5.675C8.00003 5.375 8.10003 4.875 7.90003 4.475L7.30002 2.975L8.60003 2.475L9.20002 3.975C9.40002 4.375 9.80002 4.675 10.3 4.575C11 4.475 11.7 4.475 12.5 4.575C13 4.675 13.4 4.375 13.6 3.975L14.2 2.475L15.5 2.975L14.9 4.475C14.7 4.875 14.9 5.375 15.2 5.675C15.8 6.075 16.3 6.575 16.7 7.175C17 7.575 17.5 7.675 17.9 7.475L19.4 6.875L19.9 8.175L18.4 8.775C18 8.975 17.7 9.375 17.8 9.875C17.9 10.575 17.9 11.275 17.8 12.075C17.7 12.575 18 12.975 18.4 13.175L19.9 13.775L19.4 15.075L17.9 14.475C17.5 14.275 17 14.475 16.7 14.775C16.3 15.375 15.8 15.875 15.2 16.275C14.8 16.575 14.7 17.075 14.9 17.475L15.5 18.975L14.2 19.475L13.6 17.975C13.4 17.575 13.1 17.375 12.7 17.375C12.6 17.375 12.6 17.375 12.5 17.375C11.8 17.475 11.1 17.475 10.3 17.375C9.80002 17.275 9.40002 17.575 9.20002 17.975L8.60003 19.475L7.30002 18.975L7.90003 17.475C8.10003 17.075 7.90003 16.575 7.60003 16.275C7.00003 15.875 6.50003 15.375 6.10003 14.775C5.80002 14.375 5.30003 14.275 4.90003 14.475L3.40003 15.075L2.90003 13.775L4.40003 13.175C4.80003 12.975 5.10002 12.575 5.00002 12.075C4.90002 11.375 4.90002 10.675 5.00002 9.875C5.10002 9.375 4.80003 8.975 4.40003 8.775L2.90003 8.175L3.40003 6.875Z" fill="#EC5827"/>
<path d="M9.80005 15.075C10.3 15.275 10.9 15.375 11.5 15.375C12.1 15.375 12.6 15.275 13.2 15.075C14.3 14.675 15.1 13.775 15.5 12.775C15.9 11.675 15.9 10.575 15.5 9.475C15.1 8.375 14.2 7.575 13.2 7.175C12.1 6.775 11.0001 6.775 9.90005 7.175C8.80005 7.575 8.00005 8.475 7.60005 9.475C7.20005 10.475 7.20005 11.675 7.60005 12.775C8.00005 13.875 8.80005 14.575 9.80005 15.075ZM9.30005 10.175C9.50005 9.575 10 9.175 10.6 8.875C11.2 8.675 11.8001 8.675 12.4001 8.875C13.0001 9.075 13.4 9.575 13.7 10.175C13.9 10.775 13.9 11.375 13.7 11.975C13.5 12.575 13.0001 12.975 12.4001 13.275C11.8001 13.475 11.2 13.475 10.6 13.275C10 13.075 9.60005 12.575 9.30005 11.975C9.10005 11.375 9.10005 10.775 9.30005 10.175Z" fill="#EC5827"/>
<path d="M26 29.9751H28C28 27.7751 29.8 25.9751 32 25.9751C34.2 25.9751 36 27.7751 36 29.9751H38C38 26.6751 35.3 23.9751 32 23.9751C28.7 23.9751 26 26.6751 26 29.9751Z" fill="#EC5827"/>
</svg>
