<svg width="47" height="45" viewBox="0 0 47 45" fill="none" xmlns="http://www.w3.org/2000/svg">
<path d="M2 10.9H8V13.9H7V15.9H11V13.9H10V10.9H21V13.9H20V15.9H24V13.9H23V10.9H29V17.9H31V8.9H23V7.7C23 3.5 19.6 0 15.5 0C11.4 0 8 3.5 8 7.7V8.9H0V44.9H21V42.9H2V10.9ZM10 7.7C10 4.6 12.6 2 15.5 2C18.4 2 21 4.7 21 7.7V8.9H10V7.7Z" fill="#EC5827"/>
<path d="M22 18.8999V44.8999H47V18.8999H22ZM45 42.8999H24V20.8999H45V42.8999Z" fill="#EC5827"/>
<path d="M28 31C28 34.6 31 37.6 34.5 37.6C38 37.6 41 34.6 41 31V26H42V24H38V26H39V31C39 33.5 36.9 35.6 34.5 35.6C32.1 35.6 30 33.4 30 31V26H31V24H27V26H28V31Z" fill="#EC5827"/>
</svg>
